<?xml version="1.0" standalone="no"?>
<!DOCTYPE svg PUBLIC "-//W3C//DTD SVG 20010904//EN"
 "http://www.w3.org/TR/2001/REC-SVG-20010904/DTD/svg10.dtd">
<svg version="1.0" xmlns="http://www.w3.org/2000/svg"
 width="1001.000000pt" height="1001.000000pt" viewBox="0 0 1001.000000 1001.000000"
 preserveAspectRatio="xMidYMid meet">
<metadata>
Created by potrace 1.14, written by Peter Selinger 2001-2017
</metadata>
<g transform="translate(0.000000,1001.000000) scale(0.100000,-0.100000)"
fill="#000000" stroke="none">
<path d="M4355 9976 l-160 -31 -63 -154 c-34 -85 -63 -156 -65 -158 -2 -1 -46
51 -98 117 -52 65 -100 119 -107 120 -17 0 -445 -80 -450 -85 -2 -1 103 -112
233 -245 130 -133 234 -247 232 -253 -3 -7 -73 -174 -156 -371 -83 -197 -149
-361 -146 -364 3 -3 92 14 197 37 l193 43 84 204 c46 113 87 206 90 208 4 3
63 -59 131 -135 69 -77 135 -149 147 -161 l21 -20 224 48 c122 26 226 50 230
53 4 3 -126 134 -288 290 -161 156 -294 288 -294 294 0 5 57 136 126 291 69
155 128 287 131 294 8 18 -30 14 -212 -22z"/>
<path d="M5074 9687 c-3 -9 -3 -20 0 -25 3 -5 90 -12 193 -15 895 -31 1780
-312 2528 -804 731 -481 1321 -1145 1695 -1908 439 -894 579 -1883 409 -2884
-19 -113 -17 -130 13 -131 16 0 70 346 87 563 16 190 14 626 -4 818 -91 970
-456 1848 -1089 2614 -125 151 -465 492 -616 617 -598 494 -1253 828 -1988
1012 -343 86 -679 133 -1074 151 -129 6 -149 5 -154 -8z"/>
<path d="M5074 9557 c-3 -8 -4 -52 -2 -98 l3 -84 175 -7 c1000 -37 1980 -399
2749 -1016 536 -430 967 -967 1257 -1566 393 -814 524 -1752 369 -2650 -13
-77 -22 -142 -20 -144 9 -9 180 -40 186 -34 4 4 16 61 28 127 167 966 27 1951
-402 2821 -235 475 -511 859 -887 1234 -844 844 -1950 1339 -3165 1420 -211
14 -284 13 -291 -3z"/>
<path d="M5076 9283 c-3 -4 -6 -14 -6 -23 0 -15 19 -18 153 -23 1604 -66 3045
-929 3798 -2273 227 -405 395 -884 474 -1346 46 -272 58 -432 58 -738 0 -299
-13 -470 -55 -720 -27 -162 -27 -154 0 -158 12 -2 22 0 22 4 0 4 9 59 20 123
46 275 55 392 55 746 0 262 -4 373 -18 485 -102 847 -404 1575 -923 2230 -133
167 -485 521 -649 652 -157 126 -316 238 -478 340 -165 103 -528 287 -707 357
-377 149 -781 254 -1172 305 -184 24 -561 50 -572 39z"/>
<path d="M2083 9068 c-81 -50 -149 -92 -151 -93 -5 -4 250 -1319 257 -1327 5
-6 205 119 268 166 1 1 -9 67 -22 147 -14 79 -25 154 -25 165 0 17 37 46 170
133 l169 111 127 -87 c71 -49 132 -87 137 -85 5 1 87 57 184 123 144 100 172
124 161 134 -7 7 -264 168 -570 358 l-556 344 -149 -89z m471 -559 c7 -6 -172
-131 -210 -146 -7 -3 -21 34 -39 109 -16 62 -40 152 -55 199 l-27 86 161 -120
c89 -66 165 -124 170 -128z"/>
<path d="M796 7906 c-65 -91 -117 -168 -115 -173 2 -4 215 -156 474 -337 258
-180 487 -344 507 -364 49 -47 70 -93 67 -148 l-3 -44 91 -59 c84 -54 93 -58
106 -43 47 56 92 164 107 255 20 126 -27 262 -123 360 -40 40 -973 717 -989
717 -2 0 -57 -74 -122 -164z"/>
<path d="M7340 7598 l1 -463 79 -53 c154 -104 284 -244 341 -369 16 -34 35
-98 43 -143 15 -90 24 -104 70 -120 38 -12 72 -3 100 29 27 30 18 160 -18 256
-56 147 -200 327 -357 447 l-69 53 0 287 0 288 58 -26 c521 -230 811 -765 786
-1449 -20 -549 -229 -1039 -553 -1293 -149 -117 -434 -238 -693 -294 -84 -17
-136 -22 -278 -22 -159 0 -184 3 -275 27 -364 98 -635 371 -813 817 -85 216
-180 368 -296 479 -139 131 -296 182 -459 148 -93 -19 -204 -72 -269 -128 -43
-36 -48 -45 -48 -82 1 -45 13 -67 47 -85 37 -20 66 -13 132 33 126 88 253 110
356 61 138 -64 244 -212 371 -520 70 -169 138 -290 235 -419 195 -260 449
-427 750 -493 102 -22 334 -30 456 -14 259 32 615 156 810 282 366 237 626
706 698 1261 20 156 20 462 -1 608 -28 203 -93 417 -180 590 -134 269 -383
512 -661 645 -87 42 -319 124 -350 124 -11 0 -13 -82 -13 -462z"/>
<path d="M5960 7800 c-273 -38 -587 -151 -905 -327 -66 -36 -242 -139 -392
-229 -484 -291 -878 -477 -1136 -534 -101 -23 -139 -100 -78 -161 38 -38 70
-38 202 2 312 93 675 271 1209 596 695 422 1115 543 1565 452 134 -27 226 -59
374 -130 139 -67 178 -73 216 -34 33 32 34 93 3 123 -33 30 -257 136 -363 171
-161 53 -274 72 -460 76 -93 2 -199 0 -235 -5z"/>
<path d="M782 6535 c-360 -35 -655 -65 -656 -67 -9 -10 -116 -306 -115 -319 0
-11 1015 -887 1040 -897 6 -3 76 204 94 278 5 22 -5 34 -72 94 -43 38 -99 88
-125 112 l-47 44 63 187 63 188 49 7 c27 3 83 7 124 7 41 1 91 4 111 7 l36 6
62 197 c33 108 61 202 61 209 0 6 -8 11 -17 11 -10 -1 -312 -30 -671 -64z m12
-384 c6 -9 -74 -241 -83 -241 -3 0 -46 30 -96 67 -49 37 -123 91 -163 120
l-73 53 193 3 c106 1 198 3 205 5 6 1 14 -2 17 -7z"/>
<path d="M2906 6476 c-80 -30 -124 -100 -112 -182 11 -85 92 -209 209 -321 56
-54 71 -63 102 -63 27 0 44 8 66 29 48 49 41 78 -42 168 -40 43 -89 105 -111
138 -47 72 -44 74 89 51 312 -54 698 -244 1298 -641 983 -650 2216 -1688 2193
-1847 -3 -25 -49 -52 -108 -63 -109 -21 -219 -109 -245 -198 -21 -69 -19 -93
11 -187 43 -134 27 -153 -131 -151 l-103 2 -100 -52 c-57 -29 -110 -49 -123
-47 -48 7 -47 81 2 304 17 78 29 161 29 204 0 68 -2 74 -32 104 -25 25 -59 41
-133 65 -144 46 -197 77 -207 121 -9 40 -4 100 18 212 14 69 14 80 -1 107 -18
36 -43 51 -84 51 -74 0 -109 -81 -118 -275 -9 -193 15 -245 142 -312 44 -24
114 -54 155 -67 87 -28 83 -6 38 -206 -25 -114 -29 -151 -26 -240 4 -124 26
-175 96 -225 39 -27 51 -30 118 -30 69 1 80 4 166 50 l93 50 110 0 c102 0 114
3 170 30 40 21 69 44 90 73 26 39 30 53 33 125 3 64 -1 96 -17 144 -12 34 -21
71 -21 82 0 32 55 68 144 95 248 76 295 238 131 451 -129 168 -548 552 -1000
914 -847 680 -1700 1237 -2198 1436 -235 93 -493 138 -591 101z"/>
<path d="M3467 6037 c-36 -16 -149 -155 -187 -231 -36 -72 -38 -121 -7 -167
35 -52 96 -70 251 -75 71 -3 133 -7 138 -10 9 -6 11 -127 2 -137 -4 -3 -23 2
-43 12 -132 68 -243 44 -271 -58 -14 -54 -60 -495 -60 -582 0 -80 19 -148 56
-196 l27 -36 -77 8 c-43 4 -112 12 -154 19 -88 14 -134 6 -157 -26 -22 -33
-19 -82 8 -114 22 -25 36 -29 148 -45 176 -25 291 -25 345 2 105 50 112 171
18 295 -20 25 -24 43 -24 95 0 67 36 469 43 475 2 3 24 -5 48 -16 51 -23 126
-26 172 -6 72 30 117 124 117 245 0 87 -14 134 -53 178 -49 56 -103 75 -229
81 -59 3 -108 8 -108 11 0 4 25 38 56 76 31 39 60 80 65 93 27 68 -54 139
-124 109z"/>
<path d="M3074 5666 c-25 -11 -50 -47 -126 -177 -195 -335 -288 -534 -288
-619 0 -48 37 -96 95 -121 55 -24 182 -49 265 -52 64 -2 72 0 97 25 57 58 21
142 -66 153 -154 20 -191 28 -191 42 0 21 132 274 248 474 56 97 102 184 102
193 0 29 -28 72 -55 84 -32 15 -42 15 -81 -2z"/>
<path d="M4240 5623 c0 -14 80 -547 96 -637 l15 -88 -54 -57 c-29 -31 -72 -90
-95 -132 -23 -42 -48 -81 -55 -86 -6 -6 -91 -31 -187 -57 -191 -51 -220 -68
-220 -127 0 -43 17 -69 54 -84 31 -13 46 -11 187 26 302 79 292 72 373 217 36
63 74 115 110 148 82 77 85 96 52 300 -15 91 -25 168 -22 171 3 3 187 -124
234 -163 2 -1 -11 -40 -28 -86 -40 -103 -49 -190 -25 -241 9 -20 50 -68 90
-106 41 -38 79 -79 85 -91 8 -15 10 -54 5 -124 -5 -83 -3 -117 14 -193 33
-148 27 -176 -55 -265 -94 -101 -170 -242 -230 -426 -18 -58 -45 -124 -58
-147 -22 -37 -32 -44 -83 -58 -32 -9 -87 -21 -123 -27 -152 -26 -368 -96 -491
-160 -48 -25 -62 -28 -90 -20 -19 5 -106 25 -193 45 -87 19 -160 36 -162 38
-2 1 -8 33 -14 71 -17 108 -36 135 -131 190 -104 61 -181 133 -215 203 -49 99
-20 206 95 347 68 84 80 105 81 132 0 21 3 22 85 16 79 -4 88 -3 110 18 49 46
37 125 -22 148 -30 11 -229 32 -307 32 -41 0 -53 -5 -82 -34 -28 -28 -34 -42
-34 -75 0 -23 7 -55 15 -72 17 -32 17 -33 -33 -98 -203 -267 -146 -543 153
-739 43 -28 82 -53 86 -54 4 -2 13 -41 18 -87 6 -46 18 -95 27 -109 24 -37
105 -68 269 -102 83 -17 172 -37 199 -45 85 -25 129 -20 230 29 132 65 277
112 449 147 178 36 235 58 281 110 48 53 72 102 126 260 53 158 107 257 192
354 106 121 131 208 102 355 -10 48 -18 146 -20 227 -4 184 -17 216 -123 313
l-75 69 12 48 c7 26 35 95 63 152 28 57 47 107 42 111 -17 16 -714 520 -718
520 -3 0 -5 -3 -5 -7z"/>
<path d="M100 4897 c0 -266 13 -486 40 -704 182 -1422 1026 -2691 2300 -3456
634 -380 1321 -611 2095 -704 216 -26 883 -26 1100 0 188 23 195 24 195 49 0
19 -4 20 -49 14 -300 -40 -716 -55 -996 -37 -1112 73 -2112 468 -2960 1172
-129 107 -488 465 -594 594 -596 719 -956 1557 -1055 2453 -21 188 -39 585
-34 730 l5 122 -24 0 -23 0 0 -233z"/>
<path d="M246 5098 c-9 -36 -7 -379 4 -538 58 -825 313 -1581 765 -2265 179
-271 325 -452 560 -694 813 -835 1896 -1337 3089 -1431 163 -13 595 -13 746 0
169 14 384 41 392 49 6 6 -18 180 -26 188 -1 2 -27 -1 -57 -7 -119 -21 -356
-41 -569 -47 -1138 -31 -2243 352 -3105 1076 -129 108 -370 346 -496 489 -580
660 -951 1474 -1068 2347 -30 221 -41 393 -41 637 l0 218 -94 0 c-89 0 -94 -1
-100 -22z"/>
<path d="M547 5104 c-10 -11 -8 -390 3 -544 100 -1344 812 -2558 1950 -3326
927 -625 2058 -894 3173 -752 60 7 91 16 94 25 11 27 -12 31 -112 18 -414 -55
-926 -42 -1370 35 -270 47 -631 149 -900 255 -180 70 -541 253 -703 354 -1156
726 -1895 1857 -2062 3158 -21 161 -40 522 -37 683 2 78 -1 95 -13 98 -9 1
-19 0 -23 -4z"/>
<path d="M9371 3743 c-7 -21 -14 -43 -17 -48 -2 -6 57 -64 131 -129 74 -66
134 -120 132 -122 -1 -1 -80 -10 -174 -20 l-173 -18 -16 -49 c-9 -27 -12 -52
-8 -57 5 -4 101 -37 214 -73 l205 -66 12 27 c7 15 12 32 13 37 0 6 -68 33
-151 60 l-152 50 104 7 c203 15 258 28 259 65 0 6 -54 60 -120 119 -66 59
-119 108 -117 111 2 2 64 -15 137 -38 73 -22 136 -37 140 -32 11 12 31 76 25
81 -4 5 -414 131 -426 132 -3 0 -11 -17 -18 -37z"/>
<path d="M5065 3481 c-35 -15 -43 -32 -105 -222 -95 -296 -210 -557 -321 -730
-54 -84 -61 -121 -29 -162 35 -44 68 -43 171 3 232 104 439 175 633 215 99 21
125 30 144 51 31 35 30 87 -4 121 -24 24 -30 25 -97 19 -89 -7 -268 -53 -418
-105 -62 -22 -114 -39 -116 -37 -2 2 19 52 46 112 101 225 221 579 221 653 0
61 -69 106 -125 82z"/>
<path d="M6934 3295 c-128 -28 -224 -100 -272 -204 -34 -74 -43 -213 -18 -289
48 -143 201 -220 415 -210 78 4 99 9 164 41 121 60 216 186 233 309 6 43 4 50
-24 77 -61 61 -139 32 -166 -62 -19 -64 -54 -113 -107 -149 -51 -34 -93 -42
-174 -35 -86 8 -130 28 -151 69 -22 41 -22 133 0 175 32 64 105 103 189 103
48 0 102 23 116 48 22 41 13 88 -20 116 -35 30 -85 33 -185 11z"/>
<path d="M7815 3054 c-85 -22 -116 -38 -158 -83 -51 -55 -67 -98 -67 -188 0
-52 16 -109 96 -349 66 -197 98 -306 102 -350 l5 -64 -35 0 c-43 0 -137 65
-273 188 -53 48 -113 99 -133 114 -112 81 -249 52 -314 -68 -15 -27 -47 -128
-72 -225 -90 -348 -145 -519 -167 -519 -21 0 -27 60 -33 360 -5 196 -12 342
-21 387 -34 179 -125 273 -253 260 -103 -11 -191 -84 -349 -293 -277 -366
-488 -763 -625 -1178 -61 -183 -66 -237 -25 -272 40 -34 90 -32 128 5 16 16
29 37 29 45 0 61 140 428 245 641 179 364 482 802 597 861 26 13 28 13 41 -13
31 -61 39 -139 47 -469 4 -202 12 -354 19 -376 31 -98 117 -178 194 -178 103
0 175 86 240 285 36 109 147 515 147 536 0 19 37 69 51 69 5 0 48 -36 96 -81
122 -111 278 -229 327 -247 103 -36 227 -9 279 60 74 99 66 176 -58 546 -104
311 -114 362 -75 394 17 13 40 18 90 18 113 0 419 -62 620 -126 73 -23 82 -23
114 -10 59 25 76 97 33 140 -69 69 -727 209 -842 180z"/>
<path d="M9111 3000 c-6 -14 -12 -30 -13 -36 -3 -10 333 -334 346 -334 3 0 12
15 20 33 13 31 13 33 -32 79 l-45 46 23 66 24 66 68 0 68 0 15 36 c8 20 15 40
15 44 0 12 -103 20 -302 23 l-178 2 -9 -25z m214 -70 l43 0 -15 -40 c-9 -22
-19 -40 -23 -40 -9 0 -110 80 -110 87 0 3 14 3 31 -1 17 -3 51 -6 74 -6z"/>
<path d="M1860 2880 c-94 -15 -129 -85 -73 -150 l26 -32 151 7 c172 8 347 -5
475 -36 46 -10 409 -126 805 -256 688 -226 725 -237 811 -240 73 -3 97 -1 124
14 115 60 101 185 -37 334 -58 62 -68 69 -102 69 -57 0 -95 -35 -95 -89 0 -33
7 -48 36 -78 19 -21 41 -46 48 -55 11 -14 9 -16 -11 -11 -13 3 -345 110 -738
238 -772 252 -766 250 -885 271 -95 17 -457 27 -535 14z"/>
<path d="M8985 2607 c-54 -25 -94 -67 -150 -158 -30 -49 -55 -92 -55 -96 0 -5
87 -58 192 -120 l192 -112 40 62 c100 157 109 257 34 343 -62 70 -188 111
-253 81z m113 -106 c45 -23 87 -66 101 -103 11 -29 0 -85 -27 -130 l-16 -28
-46 27 c-25 14 -87 50 -138 80 l-92 54 30 44 c17 24 40 51 52 60 30 21 91 19
136 -4z"/>
<path d="M8593 2089 c-29 -18 -149 -157 -141 -163 1 -1 75 -60 163 -131 88
-70 166 -133 174 -139 10 -8 20 -3 42 24 16 19 29 37 29 41 0 4 -31 30 -70 60
-64 48 -69 54 -54 70 8 9 23 15 32 13 9 -2 44 -10 77 -18 125 -29 112 -31 136
15 14 29 17 44 10 49 -6 3 -53 14 -104 24 -92 17 -93 18 -95 48 -8 104 -114
162 -199 107z m91 -94 c14 -13 26 -31 26 -40 0 -19 -31 -75 -41 -75 -9 0 -99
72 -99 79 0 15 52 61 69 61 10 0 30 -11 45 -25z"/>
<path d="M3619 1825 c-46 -25 -60 -91 -27 -132 5 -6 78 -45 162 -86 171 -84
186 -98 250 -225 62 -123 116 -316 116 -413 0 -24 54 -59 90 -59 44 0 89 36
91 72 6 127 -39 295 -127 475 -85 175 -167 247 -402 347 -92 39 -114 42 -153
21z"/>
<path d="M8183 1677 c-45 -39 -82 -76 -82 -80 -1 -10 299 -327 308 -327 3 0
49 40 101 89 l95 89 -22 23 -22 22 -64 -56 -64 -56 -47 48 -47 48 50 46 c28
25 51 49 51 54 0 6 -9 18 -20 28 -19 17 -21 16 -71 -29 l-53 -47 -40 41 -41
41 55 49 c54 48 55 48 36 69 -11 12 -24 21 -30 21 -6 0 -48 -33 -93 -73z"/>
<path d="M7815 1369 c-77 -55 -146 -104 -154 -108 -11 -7 -11 -13 5 -34 10
-15 23 -27 28 -27 5 0 33 18 61 39 l52 39 108 -144 c59 -79 111 -147 116 -150
9 -5 79 32 79 43 0 2 -49 70 -110 149 -60 79 -110 147 -110 152 0 4 23 23 50
42 54 38 58 48 33 78 -18 21 -19 20 -158 -79z"/>
<path d="M7446 1119 c-111 -26 -165 -142 -98 -209 28 -27 42 -31 159 -45 94
-12 133 -70 76 -114 -14 -12 -43 -24 -65 -27 -34 -6 -38 -10 -38 -35 0 -27 3
-29 38 -29 51 1 111 30 150 74 27 31 32 45 32 85 0 43 -4 52 -35 80 -37 32
-76 45 -168 56 -60 7 -87 24 -87 55 0 23 47 50 85 50 24 0 26 3 23 32 -3 37
-14 41 -72 27z"/>
<path d="M7028 913 l-36 -15 -7 -107 c-3 -58 -9 -137 -13 -174 l-7 -68 -125
119 -126 119 -49 -19 c-28 -11 -51 -21 -52 -22 -2 -2 156 -409 161 -414 2 -1
19 4 39 13 l35 14 -54 143 -54 142 103 -100 c140 -137 141 -138 165 -125 17 9
21 25 26 118 4 60 9 135 13 167 l5 60 54 -133 c29 -74 56 -136 58 -139 3 -3
25 3 50 12 l44 17 -81 202 c-53 129 -87 202 -97 204 -8 1 -31 -6 -52 -14z"/>
<path d="M6222 633 c-13 -3 -27 -14 -32 -26 -11 -28 -73 -447 -67 -454 3 -2
21 -1 40 2 35 7 36 9 43 61 3 29 11 60 18 67 6 8 39 21 74 30 l62 15 38 -54
c20 -30 42 -52 49 -50 6 3 28 8 48 12 27 5 35 10 30 22 -12 31 -260 381 -270
380 -5 0 -20 -3 -33 -5z m98 -244 c0 -3 -21 -10 -46 -16 l-46 -11 6 46 c3 24
6 59 6 76 0 30 1 29 40 -29 22 -33 40 -63 40 -66z"/>
</g>
</svg>
